[h264 @ 0x5643c9157d40] Reinit context to 848x480, pix_fmt: yuv420p
Input #0, mov,mp4,m4a,3gp,3g2,mj2, from '/var/www/html/project/media/video/original/WhatsApp_Video_2024-05-10_at_11.54.48.mp4':
  Metadata:
    major_brand     : mp42
    minor_version   : 0
    compatible_brands: mp42isom
  Duration: 00:01:41.15, start: 0.000000, bitrate: 1507 kb/s
    Stream #0:0(und): Video: h264 (Baseline), 1 reference frame (avc1 / 0x31637661), yuv420p(tv, bt709, left), 848x480, 1442 kb/s, 25 fps, 25 tbr, 600 tbn, 1200 tbc (default)
    Stream #0:1(und): Audio: aac (LC) (mp4a / 0x6134706D), 44100 Hz, stereo, fltp, 62 kb/s (default)
[h264 @ 0x5643c9179180] Reinit context to 1280x720, pix_fmt: yuv420p
Input #1, mov,mp4,m4a,3gp,3g2,mj2, from '/var/www/html/project/static/images/templates/Codino.mp4':
  Metadata:
    major_brand     : mp42
    minor_version   : 1
    compatible_brands: isommp41mp42
    creation_time   : 2021-07-11T07:02:58.000000Z
  Duration: 00:00:02.00, start: 0.000000, bitrate: 1007 kb/s
    Stream #1:0(ita): Audio: aac (LC) (mp4a / 0x6134706D), 44100 Hz, stereo, fltp, 102 kb/s (default)
    Metadata:
      creation_time   : 2021-07-11T07:02:58.000000Z
      handler_name    : Core Media Audio
    Stream #1:1(und): Video: h264 (High), 1 reference frame (avc1 / 0x31637661), yuv420p(tv, bt709, progressive, left), 1280x720 [SAR 1:1 DAR 16:9], 813 kb/s, 25 fps, 25 tbr, 25k tbn, 50k tbc (default)
    Metadata:
      creation_time   : 2021-07-11T07:02:58.000000Z
      handler_name    : Core Media Video
[Parsed_scale_0 @ 0x5643c9293c80] w:1280 h:720 flags:'bilinear' interl:0
[Parsed_scale_2 @ 0x5643c92669c0] w:1280 h:720 flags:'bilinear' interl:0
Stream mapping:
  Stream #0:0 (h264) -> scale
  Stream #0:1 (aac) -> concat:in0:a0
  Stream #1:0 (aac) -> concat:in1:a0
  Stream #1:1 (h264) -> scale
  concat:out:v0 -> Stream #0:0 (libx264)
  concat:out:a0 -> Stream #0:1 (aac)
Press [q] to stop, [?] for help
[h264 @ 0x5643c929cf80] Reinit context to 848x480, pix_fmt: yuv420p
[h264 @ 0x5643c95eab80] Reinit context to 1280x720, pix_fmt: yuv420p
[Parsed_scale_0 @ 0x5643ca138400] w:1280 h:720 flags:'bilinear' interl:0
[Parsed_scale_2 @ 0x5643ca140600] w:1280 h:720 flags:'bilinear' interl:0
[graph 0 input from stream 0:0 @ 0x5643ca1438c0] w:848 h:480 pixfmt:yuv420p tb:1/600 fr:25/1 sar:0/1 sws_param:flags=2
[graph 0 input from stream 1:1 @ 0x5643ca144940] w:1280 h:720 pixfmt:yuv420p tb:1/25000 fr:25/1 sar:1/1 sws_param:flags=2
[graph_0_in_0_1 @ 0x5643ca1458c0] tb:1/44100 samplefmt:fltp samplerate:44100 chlayout:0x3
[graph_0_in_1_0 @ 0x5643ca146a00] tb:1/44100 samplefmt:fltp samplerate:44100 chlayout:0x3
[Parsed_scale_0 @ 0x5643ca138400] w:848 h:480 fmt:yuv420p sar:0/1 -> w:1280 h:720 fmt:yuv420p sar:0/1 flags:0x2
[Parsed_setsar_1 @ 0x5643c9298940] w:1280 h:720 sar:0/1 dar:16/9 -> sar:1/1 dar:16/9
[Parsed_scale_2 @ 0x5643ca140600] w:1280 h:720 fmt:yuv420p sar:1/1 -> w:1280 h:720 fmt:yuv420p sar:1/1 flags:0x2
[Parsed_setsar_3 @ 0x5643ca140b00] w:1280 h:720 sar:1/1 dar:16/9 -> sar:1/1 dar:16/9
[libx264 @ 0x5643c92e1e40] using SAR=1/1
[libx264 @ 0x5643c92e1e40] using cpu capabilities: MMX2 SSE2Fast SSSE3 SSE4.2 AVX FMA3 BMI2 AVX2
[libx264 @ 0x5643c92e1e40] profile High, level 3.1
[libx264 @ 0x5643c92e1e40] 264 - core 155 r2917 0a84d98 - H.264/MPEG-4 AVC codec - Copyleft 2003-2018 - http://www.videolan.org/x264.html - options: cabac=1 ref=1 deblock=1:0:0 analyse=0x3:0x113 me=hex subme=2 psy=1 psy_rd=1.00:0.00 mixed_ref=0 me_range=16 chroma_me=1 trellis=0 8x8dct=1 cqm=0 deadzone=21,11 fast_pskip=1 chroma_qp_offset=0 threads=22 lookahead_threads=5 sliced_threads=0 nr=0 decimate=1 interlaced=0 bluray_compat=0 constrained_intra=0 bframes=3 b_pyramid=2 b_adapt=1 b_bias=0 direct=1 weightb=1 open_gop=0 weightp=1 keyint=250 keyint_min=25 scenecut=40 intra_refresh=0 rc_lookahead=10 rc=crf mbtree=1 crf=18.0 qcomp=0.60 qpmin=0 qpmax=69 qpstep=4 ip_ratio=1.40 aq=1:1.00
Output #0, mp4, to '/var/www/html/project/media/video/watermarks/WhatsApp_Video_2024-05-10_at_11.54.48.mp4':
  Metadata:
    major_brand     : mp42
    minor_version   : 0
    compatible_brands: mp42isom
    encoder         : Lavf58.29.100
    Stream #0:0: Video: h264 (libx264), 1 reference frame (avc1 / 0x31637661), yuv420p(progressive), 1280x720 [SAR 1:1 DAR 16:9], q=-1--1, 25 fps, 12800 tbn, 25 tbc (default)
    Metadata:
      encoder         : Lavc58.54.100 libx264
    Side data:
      cpb: bitrate max/min/avg: 0/0/0 buffer size: 0 vbv_delay: -1
    Stream #0:1: Audio: aac (LC) (mp4a / 0x6134706D), 44100 Hz, stereo, fltp, delay 1024, 128 kb/s (default)
    Metadata:
      encoder         : Lavc58.54.100 aac
[Parsed_concat_4 @ 0x5643ca141940] EOF on in0:v0, 1 streams left in segment.
[Parsed_concat_4 @ 0x5643ca141940] EOF on in0:a0, 0 streams left in segment.
[Parsed_concat_4 @ 0x5643ca141940] Segment finished at pts=101146122
[Parsed_concat_4 @ 0x5643ca141940] EOF on in1:a0, 1 streams left in segment.
[Parsed_concat_4 @ 0x5643ca141940] EOF on in1:v0, 0 streams left in segment.
[Parsed_concat_4 @ 0x5643ca141940] Segment finished at pts=103164807
No more output streams to write to, finishing.
frame= 2577 fps= 87 q=-1.0 Lsize=   51564kB time=00:01:43.16 bitrate=4094.5kbits/s speed=3.47x    
[AVIOContext @ 0x5643c9156180] Statistics: 0 seeks, 59 writeouts
video:49991kB audio:1487kB subtitle:0kB other streams:0kB global headers:0kB muxing overhead: 0.166000%
Input file #0 (/var/www/html/project/media/video/original/WhatsApp_Video_2024-05-10_at_11.54.48.mp4):
  Input stream #0:0 (video): 2527 packets read (18227655 bytes); 2527 frames decoded; 
  Input stream #0:1 (audio): 4356 packets read (793997 bytes); 4356 frames decoded (4460544 samples); 
  Total: 6883 packets (19021652 bytes) demuxed
Input file #1 (/var/www/html/project/static/images/templates/Codino.mp4):
  Input stream #1:0 (audio): 89 packets read (26579 bytes); 87 frames decoded (89024 samples); 
  Input stream #1:1 (video): 50 packets read (203365 bytes); 50 frames decoded; 
  Total: 139 packets (229944 bytes) demuxed
Output file #0 (/var/www/html/project/media/video/watermarks/WhatsApp_Video_2024-05-10_at_11.54.48.mp4):
  Output stream #0:0 (video): 2577 frames encoded; 2577 packets muxed (51190724 bytes); 
  Output stream #0:1 (audio): 4443 frames encoded (4549568 samples); 4444 packets muxed (1522976 bytes); 
  Total: 7021 packets (52713700 bytes) muxed
[AVIOContext @ 0x5643c92e2680] Statistics: 2 seeks, 205 writeouts
[libx264 @ 0x5643c92e1e40] frame I:21    Avg QP:15.12  size: 99846
[libx264 @ 0x5643c92e1e40] frame P:683   Avg QP:19.06  size: 43371
[libx264 @ 0x5643c92e1e40] frame B:1873  Avg QP:22.59  size: 10396
[libx264 @ 0x5643c92e1e40] consecutive B-frames:  1.8%  2.1%  5.1% 91.0%
[libx264 @ 0x5643c92e1e40] mb I  I16..4: 11.4% 17.3% 71.3%
[libx264 @ 0x5643c92e1e40] mb P  I16..4:  4.0% 10.8%  6.7%  P16..4: 28.3% 22.9% 19.4%  0.0%  0.0%    skip: 7.9%
[libx264 @ 0x5643c92e1e40] mb B  I16..4:  0.8%  1.1%  0.2%  B16..8: 26.5% 13.4%  2.4%  direct:13.8%  skip:41.8%  L0:34.9% L1:39.6% BI:25.5%
[libx264 @ 0x5643c92e1e40] 8x8 transform intra:47.3% inter:29.9%
[libx264 @ 0x5643c92e1e40] coded y,uvDC,uvAC intra: 65.7% 63.9% 35.1% inter: 20.9% 23.5% 2.7%
[libx264 @ 0x5643c92e1e40] i16 v,h,dc,p: 48% 31% 13%  9%
[libx264 @ 0x5643c92e1e40] i8 v,h,dc,ddl,ddr,vr,hd,vl,hu: 30% 24% 14%  4%  6%  6%  6%  5%  5%
[libx264 @ 0x5643c92e1e40] i4 v,h,dc,ddl,ddr,vr,hd,vl,hu: 27% 22% 11%  6%  8%  8%  7%  6%  6%
[libx264 @ 0x5643c92e1e40] i8c dc,h,v,p: 46% 22% 24%  8%
[libx264 @ 0x5643c92e1e40] Weighted P-Frames: Y:4.4% UV:0.3%
[libx264 @ 0x5643c92e1e40] kb/s:3969.76
[aac @ 0x5643c92c8d80] Qavg: 12318.976
[AVIOContext @ 0x5643c915f080] Statistics: 125960393 bytes read, 3676 seeks
[AVIOContext @ 0x5643c917cd80] Statistics: 1530915 bytes read, 42 seeks
